<svg xmlns="http://www.w3.org/2000/svg" viewBox="0 0 24.5 16.33">
	<defs>
		<style>
			.mail-cls-1{fill:#283038;}
		</style>
	</defs>
	<path id="mail" class="mail-cls-1" d="M21.8,0H2.7A2.7,2.7,0,0,0,0,2.7V13.63a2.7,2.7,0,0,0,2.7,2.7H21.8a2.7,2.7,0,0,0,2.7-2.7V2.7A2.7,2.7,0,0,0,21.8,0Zm1.39,2.7V13.63a1.38,1.38,0,0,1-.08.45,83.65,83.65,0,0,0-6.85-5.35,85.44,85.44,0,0,0,6.82-6.57A1.38,1.38,0,0,1,23.19,2.7ZM1.53,14.37a1.38,1.38,0,0,1-.21-.74V2.7a1.38,1.38,0,0,1,.12-.55c.72.74,2.41,2.47,4.25,4.18,1.1,1,2,1.83,2.79,2.46A84.38,84.38,0,0,0,1.53,14.37ZM22.28,1.11c-4,4.23-8.77,8.61-9.92,8.61S6.49,5.52,2.44,1.31ZM1.54,1.32h0ZM2.77,15A82.37,82.37,0,0,1,9.54,9.63C11.43,11,12.06,11,12.36,11a6.05,6.05,0,0,0,2.82-1.44,82.77,82.77,0,0,1,7,5.39,1.38,1.38,0,0,1-.34,0Z"/>
</svg>